<svg width="336" height="336" viewBox="0 0 336 336" fill="none"
    xmlns="http://www.w3.org/2000/svg">
    <circle cx="168" cy="168" r="168" fill="#FF6B81"/>
    <path d="M127.758 207H140.531V142.658H165.229V130.68H103.06V142.658H127.758V207ZM178.685 207H191.458V159.777H205.291V149.76H191.458V146.103C191.458 144.124 192.041 142.534 193.207 141.333C194.409 140.096 196.228 139.478 198.666 139.478H205.291V129.09H198.136C196.758 129.09 195.151 129.143 193.313 129.249C191.476 129.32 189.603 129.708 187.695 130.415C185.823 131.086 184.074 132.323 182.448 134.125C180.505 136.245 179.392 138.683 179.109 141.439C178.827 144.195 178.685 146.668 178.685 148.859V149.76H169.463V159.777H178.685V207ZM210.604 207H223.695V193.909H210.604V207Z" fill="white"/>
</svg>